<svg width="36" height="28" viewBox="0 0 36 28" fill="none" xmlns="http://www.w3.org/2000/svg">
<path d="M34.7503 17.8215V4.32653C34.7492 3.84323 34.5775 3.37466 34.2633 2.99773C33.9492 2.62079 33.5113 2.35789 33.0216 2.25217C32.5319 2.14646 32.0193 2.2042 31.5682 2.41594C31.117 2.62767 30.754 2.98081 30.5387 3.4174C24.1218 -0.133923 11.4501 -0.133923 5.03316 3.4174C4.81788 2.98081 4.45487 2.62767 4.0037 2.41594C3.55254 2.2042 3.04003 2.14646 2.55029 2.25217C2.06055 2.35789 1.62269 2.62079 1.30856 2.99773C0.99443 3.37466 0.822704 3.84323 0.821566 4.32653V17.8215C0.625947 17.8215 0.43834 17.8964 0.300017 18.0296C0.161694 18.1628 0.0839844 18.3434 0.0839844 18.5318L0.0839844 27.055C0.0839844 27.2433 0.161694 27.424 0.300017 27.5572C0.43834 27.6904 0.625947 27.7652 0.821566 27.7652H3.77189C3.96751 27.7652 4.15512 27.6904 4.29344 27.5572C4.43176 27.424 4.50947 27.2433 4.50947 27.055V23.5037H31.0624V27.055C31.0624 27.2433 31.1401 27.424 31.2784 27.5572C31.4168 27.6904 31.6044 27.7652 31.8 27.7652H34.7503C34.9459 27.7652 35.1335 27.6904 35.2719 27.5572C35.4102 27.424 35.4879 27.2433 35.4879 27.055V18.5318C35.4879 18.3434 35.4102 18.1628 35.2719 18.0296C35.1335 17.8964 34.9459 17.8215 34.7503 17.8215ZM1.55915 22.0831V19.2421H34.0127V22.0831H1.55915ZM3.77189 4.32653V4.58223C3.77252 4.71236 3.81025 4.83982 3.88098 4.95071C3.95172 5.06159 4.05272 5.15163 4.17298 5.211C4.29324 5.27037 4.42812 5.29678 4.5629 5.28735C4.69768 5.27792 4.82719 5.23302 4.93727 5.15754C10.6904 1.21558 24.852 1.21558 30.6346 5.15754C30.7447 5.23302 30.8742 5.27792 31.009 5.28735C31.1438 5.29678 31.2786 5.27037 31.3989 5.211C31.5192 5.15163 31.6202 5.06159 31.6909 4.95071C31.7616 4.83982 31.7994 4.71236 31.8 4.58223V4.32653C31.8 4.13816 31.8777 3.9575 32.016 3.8243C32.1543 3.6911 32.342 3.61627 32.5376 3.61627C32.7332 3.61627 32.9208 3.6911 33.0591 3.8243C33.1974 3.9575 33.2752 4.13816 33.2752 4.32653V14.2702C32.3777 13.6667 31.276 13.4129 30.1921 13.56C30.3099 13.239 30.3462 12.8956 30.2978 12.5584C30.2495 12.2213 30.118 11.9001 29.9144 11.6219C29.7107 11.3437 29.4408 11.1166 29.1272 10.9595C28.8136 10.8023 28.4656 10.7199 28.1121 10.7189H22.2114C21.858 10.7199 21.5099 10.8023 21.1963 10.9595C20.8827 11.1166 20.6128 11.3437 20.4092 11.6219C20.2055 11.9001 20.074 12.2213 20.0257 12.5584C19.9774 12.8956 20.0136 13.239 20.1315 13.56H15.4404C15.5583 13.239 15.5945 12.8956 15.5462 12.5584C15.4979 12.2213 15.3664 11.9001 15.1627 11.6219C14.9591 11.3437 14.6891 11.1166 14.3756 10.9595C14.062 10.8023 13.7139 10.7199 13.3605 10.7189H7.4598C6.87294 10.7189 6.31012 10.9434 5.89515 11.343C5.48018 11.7426 5.24706 12.2846 5.24706 12.8497C5.24706 13.7375 5.80762 13.56 4.50947 13.56C3.71082 13.5558 2.93305 13.8054 2.29673 14.2702V4.32653C2.29673 4.13816 2.37444 3.9575 2.51276 3.8243C2.65108 3.6911 2.83869 3.61627 3.03431 3.61627C3.22993 3.61627 3.41754 3.6911 3.55586 3.8243C3.69418 3.9575 3.77189 4.13816 3.77189 4.32653ZM22.2114 12.1394H28.1121C28.3077 12.1394 28.4953 12.2143 28.6336 12.3475C28.772 12.4807 28.8497 12.6613 28.8497 12.8497C28.8497 13.0381 28.772 13.2187 28.6336 13.3519C28.4953 13.4851 28.3077 13.56 28.1121 13.56H22.2114C22.0158 13.56 21.8282 13.4851 21.6899 13.3519C21.5516 13.2187 21.4739 13.0381 21.4739 12.8497C21.4739 12.6613 21.5516 12.4807 21.6899 12.3475C21.8282 12.2143 22.0158 12.1394 22.2114 12.1394ZM7.4598 12.1394H13.3605C13.5561 12.1394 13.7437 12.2143 13.882 12.3475C14.0203 12.4807 14.098 12.6613 14.098 12.8497C14.098 13.0381 14.0203 13.2187 13.882 13.3519C13.7437 13.4851 13.5561 13.56 13.3605 13.56H7.4598C7.26418 13.56 7.07657 13.4851 6.93825 13.3519C6.79993 13.2187 6.72222 13.0381 6.72222 12.8497C6.72222 12.6613 6.79993 12.4807 6.93825 12.3475C7.07657 12.2143 7.26418 12.1394 7.4598 12.1394ZM2.29673 17.1113C2.29673 16.5462 2.52986 16.0042 2.94483 15.6046C3.3598 15.205 3.92262 14.9805 4.50947 14.9805H31.0624C31.6493 14.9805 32.2121 15.205 32.6271 15.6046C33.042 16.0042 33.2752 16.5462 33.2752 17.1113V17.8215H2.29673V17.1113ZM3.03431 26.3447H1.55915V23.5037H3.03431V26.3447ZM34.0127 26.3447H32.5376V23.5037H34.0127V26.3447Z" fill="#76622E"/>
</svg>
