<svg width="54" height="16" viewBox="0 0 54 16" fill="none" xmlns="http://www.w3.org/2000/svg">
<path d="M51.824 0.0527344H2.06685C1.1723 0.0527344 0.444336 0.768247 0.444336 1.64749V13.4753C0.444336 14.3545 1.1723 15.07 2.06685 15.07H51.824C52.7185 15.07 53.4465 14.3545 53.4465 13.4753V1.64749C53.4465 0.768247 52.7185 0.0527344 51.824 0.0527344ZM52.3648 13.4753C52.3648 13.7687 52.1225 14.0068 51.824 14.0068H48.3085V9.9535C48.3085 9.65953 48.0667 9.42192 47.7677 9.42192C47.4686 9.42192 47.2268 9.65953 47.2268 9.9535V14.0068H42.3593V9.9535C42.3593 9.65953 42.1175 9.42192 41.8184 9.42192C41.5194 9.42192 41.2776 9.65953 41.2776 9.9535V14.0068H36.4101V9.9535C36.4101 9.65953 36.1683 9.42192 35.8692 9.42192C35.5701 9.42192 35.3284 9.65953 35.3284 9.9535V14.0068H30.4608V9.9535C30.4608 9.65953 30.2191 9.42192 29.92 9.42192C29.6209 9.42192 29.3792 9.65953 29.3792 9.9535V14.0068H24.5116V9.9535C24.5116 9.65953 24.2693 9.42192 23.9708 9.42192C23.6722 9.42192 23.43 9.65953 23.43 9.9535V14.0068H18.5624V9.9535C18.5624 9.65953 18.3201 9.42192 18.0216 9.42192C17.723 9.42192 17.4807 9.65953 17.4807 9.9535V14.0068H12.6132V9.9535C12.6132 9.65953 12.3709 9.42192 12.0724 9.42192C11.7738 9.42192 11.5315 9.65953 11.5315 9.9535V14.0068H6.66397V9.9535C6.66397 9.65953 6.42168 9.42192 6.12314 9.42192C5.82459 9.42192 5.5823 9.65953 5.5823 9.9535V14.0068H2.06685C1.76885 14.0068 1.52601 13.7687 1.52601 13.4753V1.64749C1.52601 1.35459 1.76885 1.1159 2.06685 1.1159H51.824C52.1225 1.1159 52.3648 1.35459 52.3648 1.64749V13.4753Z" fill="#76622E"/>
</svg>
