<svg width="34" height="35" viewBox="0 0 34 35" fill="none" xmlns="http://www.w3.org/2000/svg">
<rect x="0.952148" y="16.5859" width="33" height="1.83333" rx="0.916667" fill="#76622E"/>
<path d="M15.6201 1.91927C15.6201 0.906749 16.4409 0.0859375 17.4534 0.0859375H33.9534V1.91927H15.6201Z" fill="#76622E"/>
<path d="M17.4535 0.0859372C16.4409 0.0859374 15.6201 0.906749 15.6201 1.91927L15.6201 18.4193L17.4535 18.4193L17.4535 0.0859372Z" fill="#76622E"/>
<rect x="6.45117" y="20.252" width="1.83333" height="5.5" rx="0.916667" fill="#76622E" fill-opacity="0.87"/>
<rect x="17.4521" y="29.4199" width="1.83333" height="5.5" rx="0.916667" fill="#76622E" fill-opacity="0.87"/>
<rect x="6.45117" y="29.4199" width="1.83333" height="5.5" rx="0.916667" fill="#76622E" fill-opacity="0.87"/>
<rect x="28.4531" y="29.4199" width="1.83333" height="5.5" rx="0.916667" fill="#76622E" fill-opacity="0.87"/>
<rect x="17.4521" y="20.252" width="1.83333" height="5.5" rx="0.916667" fill="#76622E" fill-opacity="0.87"/>
<rect x="28.4531" y="20.252" width="1.83333" height="5.5" rx="0.916667" fill="#76622E" fill-opacity="0.87"/>
<rect x="11.9531" y="22.0859" width="1.83333" height="5.5" rx="0.916667" fill="#76622E" fill-opacity="0.87"/>
<rect x="22.9512" y="22.0859" width="1.83333" height="5.5" rx="0.916667" fill="#76622E" fill-opacity="0.87"/>
<rect x="11.9531" y="29.4199" width="1.83333" height="5.5" rx="0.916667" fill="#76622E" fill-opacity="0.87"/>
<rect x="22.9512" y="29.4199" width="1.83333" height="5.5" rx="0.916667" fill="#76622E" fill-opacity="0.87"/>
</svg>
