<svg width="36" height="34" viewBox="0 0 36 34" fill="none" xmlns="http://www.w3.org/2000/svg">
<path d="M34.6855 30.1449C33.5546 30.1308 32.4559 30.5085 31.5887 31.2096C30.8976 31.7706 30.0236 32.0782 29.1206 32.0782C28.2177 32.0782 27.3437 31.7706 26.6525 31.2096C25.7783 30.521 24.6847 30.1449 23.5565 30.1449C22.4282 30.1449 21.3346 30.521 20.4604 31.2096C19.7699 31.7706 18.8965 32.0782 17.994 32.0782C17.0916 32.0782 16.2181 31.7706 15.5277 31.2096C14.6607 30.5085 13.5622 30.1308 12.4314 30.1449C11.301 30.1308 10.2028 30.5086 9.33616 31.2096C8.65322 31.7826 7.77513 32.092 6.87041 32.0784C5.9658 32.0921 5.0878 31.7827 4.40498 31.2097C3.53877 30.5087 2.4409 30.1309 1.31076 30.1449C1.168 30.1449 1.03108 30.1997 0.930126 30.2971C0.829175 30.3946 0.772461 30.5268 0.772461 30.6647C0.772461 30.8025 0.829175 30.9347 0.930126 31.0322C1.03108 31.1296 1.168 31.1844 1.31076 31.1844C2.21538 31.1707 3.09337 31.48 3.77619 32.0531C4.64241 32.7541 5.74027 33.1319 6.87041 33.1178C8.00086 33.132 9.09908 32.7542 9.96565 32.0532C10.6561 31.4921 11.5296 31.1845 12.432 31.1845C13.3345 31.1845 14.208 31.4921 14.8984 32.0532C15.7725 32.7418 16.866 33.1178 17.9941 33.1178C19.1222 33.1178 20.2157 32.7418 21.0897 32.0532C21.7805 31.4921 22.6541 31.1845 23.5568 31.1845C24.4594 31.1845 25.3331 31.4921 26.0238 32.0532C26.8984 32.7418 27.9923 33.1178 29.1208 33.1178C30.2492 33.1178 31.3431 32.7418 32.2177 32.0532C32.9014 31.4801 33.7802 31.1707 34.6855 31.1844C34.8283 31.1844 34.9652 31.1296 35.0662 31.0322C35.1671 30.9347 35.2238 30.8025 35.2238 30.6647C35.2238 30.5268 35.1671 30.3946 35.0662 30.2971C34.9652 30.1997 34.8283 30.1449 34.6855 30.1449Z" fill="#76622E"/>
<path d="M34.6855 6.68415C34.8283 6.68415 34.9652 6.6294 35.0662 6.53193C35.1671 6.43446 35.2238 6.30226 35.2238 6.16441C35.2238 6.02657 35.1671 5.89437 35.0662 5.7969C34.9652 5.69943 34.8283 5.64467 34.6855 5.64467H27.6876V4.60519H34.6855C34.8283 4.60519 34.9652 4.55043 35.0662 4.45296C35.1671 4.35549 35.2238 4.22329 35.2238 4.08545C35.2238 3.94761 35.1671 3.81541 35.0662 3.71794C34.9652 3.62047 34.8283 3.56571 34.6855 3.56571H27.6876V2.26636C27.6876 1.7839 27.4891 1.32121 27.1358 0.980066C26.7824 0.638919 26.3032 0.447266 25.8035 0.447266C25.3039 0.447266 24.8246 0.638919 24.4713 0.980066C24.118 1.32121 23.9195 1.7839 23.9195 2.26636V3.56571H12.0768V2.26636C12.0768 1.7839 11.8783 1.32121 11.525 0.980066C11.1717 0.638919 10.6924 0.447266 10.1928 0.447266C9.69308 0.447266 9.21386 0.638919 8.86053 0.980066C8.5072 1.32121 8.3087 1.7839 8.3087 2.26636V3.56571H1.31076C1.168 3.56571 1.03108 3.62047 0.930126 3.71794C0.829175 3.81541 0.772461 3.94761 0.772461 4.08545C0.772461 4.22329 0.829175 4.35549 0.930126 4.45296C1.03108 4.55043 1.168 4.60519 1.31076 4.60519H8.3087V5.64467H1.31076C1.168 5.64467 1.03108 5.69943 0.930126 5.7969C0.829175 5.89437 0.772461 6.02657 0.772461 6.16441C0.772461 6.30226 0.829175 6.43446 0.930126 6.53193C1.03108 6.6294 1.168 6.68415 1.31076 6.68415H8.3087V25.5819C7.85353 25.7653 7.36343 25.8538 6.87041 25.8418C5.9658 25.8555 5.0878 25.5462 4.40498 24.9731C3.53877 24.2721 2.4409 23.8943 1.31076 23.9084C1.168 23.9084 1.03108 23.9631 0.930126 24.0606C0.829175 24.1581 0.772461 24.2903 0.772461 24.4281C0.772461 24.5659 0.829175 24.6981 0.930126 24.7956C1.03108 24.8931 1.168 24.9478 1.31076 24.9478C2.21538 24.9341 3.09337 25.2435 3.77619 25.8165C4.64241 26.5175 5.74027 26.8953 6.87041 26.8813C8.00086 26.8954 9.09908 26.5177 9.96565 25.8166C10.6561 25.2556 11.5296 24.9479 12.432 24.9479C13.3345 24.9479 14.208 25.2556 14.8984 25.8166C15.7725 26.5052 16.866 26.8813 17.9941 26.8813C19.1222 26.8813 20.2157 26.5052 21.0897 25.8166C21.7805 25.2556 22.6541 24.9479 23.5568 24.9479C24.4594 24.9479 25.3331 25.2556 26.0238 25.8166C26.8984 26.5052 27.9923 26.8813 29.1208 26.8813C30.2492 26.8813 31.3431 26.5052 32.2177 25.8166C32.9014 25.2435 33.7802 24.9342 34.6855 24.9478C34.8283 24.9478 34.9652 24.8931 35.0662 24.7956C35.1671 24.6981 35.2238 24.5659 35.2238 24.4281C35.2238 24.2903 35.1671 24.1581 35.0662 24.0606C34.9652 23.9631 34.8283 23.9084 34.6855 23.9084C33.5546 23.8942 32.4559 24.272 31.5887 24.973C30.9049 25.5462 30.0261 25.8555 29.1206 25.8417C28.6296 25.8535 28.1414 25.7659 27.6876 25.5844V6.68415H34.6855ZM23.9195 10.8421H12.0768V9.8026H23.9195V10.8421ZM12.0768 11.8816H23.9195V13.9605H12.0768V11.8816ZM12.0768 15H23.9195V16.0395H12.0768V15ZM23.9195 8.76312H12.0768V6.68415H23.9195V8.76312ZM12.0768 17.079H23.9195V19.1579H12.0768V17.079ZM12.0768 20.1974H23.9195V21.2369H12.0768V20.1974ZM23.9195 4.60519V5.64467H12.0768V4.60519H23.9195ZM9.38531 24.9393V2.26636C9.38531 2.05959 9.47038 1.8613 9.6218 1.71509C9.77323 1.56888 9.97861 1.48675 10.1928 1.48675C10.4069 1.48675 10.6123 1.56888 10.7637 1.71509C10.9151 1.8613 11.0002 2.05959 11.0002 2.26636V24.1022C10.416 24.2893 9.86964 24.5725 9.38531 24.9393ZM20.4602 24.9731C19.7697 25.5341 18.8963 25.8417 17.9938 25.8417C17.0914 25.8417 16.2179 25.5341 15.5274 24.9731C14.6606 24.272 13.5621 23.8943 12.4314 23.9084C12.306 23.9084 12.1929 23.9177 12.0768 23.9246V22.2764H23.9195V23.9251C23.8005 23.9178 23.6842 23.9084 23.5554 23.9084C22.425 23.8943 21.3268 24.2721 20.4602 24.9731ZM24.9961 24.1043V2.26636C24.9961 2.05959 25.0812 1.8613 25.2326 1.71509C25.384 1.56888 25.5894 1.48675 25.8035 1.48675C26.0177 1.48675 26.2231 1.56888 26.3745 1.71509C26.5259 1.8613 26.611 2.05959 26.611 2.26636V24.9447C26.1266 24.5772 25.5803 24.2929 24.9961 24.1043Z" fill="#76622E"/>
</svg>
