<svg width="36" height="26" viewBox="0 0 36 26" fill="none" xmlns="http://www.w3.org/2000/svg">
<path d="M10.5117 2.56445C14.0934 2.56445 16.8486 5.52627 16.8486 9.03913C16.8486 12.552 14.0934 15.5138 10.5117 15.5138C6.99886 15.5138 4.1748 12.552 4.1748 9.03913C4.1748 5.52627 6.99886 2.56445 10.5117 2.56445ZM10.5117 4.28644C7.96318 4.28644 5.96567 6.49058 5.96567 9.03913C5.96567 11.5877 7.8943 13.7918 10.5117 13.7918C13.1291 13.7918 15.1266 11.5877 15.1266 9.03913C15.1266 6.49058 13.1291 4.28644 10.5117 4.28644Z" fill="#76622E"/>
<path d="M0.180664 25.4333L0.456182 24.5378C1.42049 21.0938 3.48688 17.7188 7.41301 17.7188C9.47939 17.7188 11.4769 17.7188 13.4744 17.7188C17.4694 17.7188 19.5358 21.0938 20.5001 24.5378L20.7756 25.4333H18.9159L18.847 25.02C18.0893 22.4026 16.574 19.5096 13.4744 19.5096C11.4769 19.5096 9.47939 19.5096 7.41301 19.5096C4.31343 19.5096 2.86696 22.4026 2.10929 25.02L1.97153 25.4333H0.180664Z" fill="#76622E"/>
<path d="M25.1826 0.636719C28.7644 0.636719 31.5195 3.59854 31.5195 7.11139C31.5195 10.6242 28.7644 13.5861 25.1826 13.5861C21.6698 13.5861 18.8457 10.6242 18.8457 7.11139C18.8457 3.59854 21.6698 0.636719 25.1826 0.636719ZM25.1826 2.35871C22.6341 2.35871 20.6366 4.56285 20.6366 7.11139C20.6366 9.65993 22.5652 11.8641 25.1826 11.8641C27.8 11.8641 29.7975 9.65993 29.7975 7.11139C29.7975 4.56285 27.8 2.35871 25.1826 2.35871Z" fill="#76622E"/>
<path d="M18.0195 17.4422C19.0527 16.409 20.4303 15.7891 22.0834 15.7891C24.1498 15.7891 26.1473 15.7891 28.1448 15.7891C32.1398 15.7891 34.2062 19.233 35.1705 22.6081L35.5149 23.7791H33.6552L33.5174 23.0903C32.7597 20.5417 31.2444 17.5799 28.1448 17.5799C26.1473 17.5799 24.1498 17.5799 22.0834 17.5799C20.9813 17.5799 20.0859 17.9932 19.3282 18.6131C18.915 18.131 18.5017 17.7866 18.0195 17.4422Z" fill="#76622E"/>
</svg>
