<svg width="100" height="100" viewBox="0 0 100 100" fill="none" xmlns="http://www.w3.org/2000/svg">
<path d="M84.7083 59.7917L64.5833 52.6875V47.1667C67.2853 43.8475 68.7572 39.6966 68.75 35.4167H70.8333C72.4909 35.4167 74.0807 34.7582 75.2528 33.5861C76.4249 32.414 77.0833 30.8243 77.0833 29.1667C77.0833 27.5091 76.4249 25.9193 75.2528 24.7472C74.0807 23.5751 72.4909 22.9167 70.8333 22.9167V2.08333C70.8333 1.5308 70.6138 1.0009 70.2231 0.610194C69.8324 0.219493 69.3025 0 68.75 0L31.25 0C30.6975 0 30.1676 0.219493 29.7769 0.610194C29.3862 1.0009 29.1667 1.5308 29.1667 2.08333V22.9167C27.5091 22.9167 25.9194 23.5751 24.7473 24.7472C23.5751 25.9193 22.9167 27.5091 22.9167 29.1667C22.9167 30.8243 23.5751 32.414 24.7473 33.5861C25.9194 34.7582 27.5091 35.4167 29.1667 35.4167H31.25C31.2428 39.6966 32.7147 43.8475 35.4167 47.1667V52.6875L15.2917 59.7917C10.818 61.3701 6.94446 64.298 4.20548 68.1714C1.4665 72.0448 -0.00290468 76.6727 4.31087e-06 81.4167V97.9167C4.31087e-06 98.4692 0.219498 98.9991 0.610198 99.3898C1.0009 99.7805 1.5308 100 2.08334 100C2.63587 100 3.16578 99.7805 3.55648 99.3898C3.94718 98.9991 4.16667 98.4692 4.16667 97.9167V81.4167C4.16464 77.5376 5.36577 73.7534 7.60452 70.5855C9.84328 67.4177 13.0094 65.0222 16.6667 63.7292L36.6667 56.6667C42.5833 65.5625 42.0833 64.5833 41.6667 64.5833C41.1141 64.5833 40.5842 64.8028 40.1935 65.1935C39.8028 65.5842 39.5833 66.1141 39.5833 66.6667V97.9167C39.5833 98.4692 39.8028 98.9991 40.1935 99.3898C40.5842 99.7805 41.1141 100 41.6667 100C42.2192 100 42.7491 99.7805 43.1398 99.3898C43.5305 98.9991 43.75 98.4692 43.75 97.9167V68.75C53.7917 68.75 55.0208 69.1458 55.8958 67.8125L63.3333 56.6667L83.3333 63.7292C86.9906 65.0222 90.1567 67.4177 92.3955 70.5855C94.6342 73.7534 95.8354 77.5376 95.8333 81.4167V97.9167C95.8333 98.4692 96.0528 98.9991 96.4435 99.3898C96.8342 99.7805 97.3641 100 97.9167 100C98.4692 100 98.9991 99.7805 99.3898 99.3898C99.7805 98.9991 100 98.4692 100 97.9167V81.4167C100.003 76.6727 98.5335 72.0448 95.7945 68.1714C93.0555 64.298 89.182 61.3701 84.7083 59.7917ZM64.5833 35.4167C64.5833 39.2844 63.0469 42.9937 60.312 45.7286C57.5771 48.4635 53.8677 50 50 50C46.1323 50 42.4229 48.4635 39.688 45.7286C36.9531 42.9937 35.4167 39.2844 35.4167 35.4167V27.0833H64.5833V35.4167ZM70.8333 31.25H68.75V27.0833H70.8333C71.3859 27.0833 71.9158 27.3028 72.3065 27.6935C72.6972 28.0842 72.9167 28.6141 72.9167 29.1667C72.9167 29.7192 72.6972 30.2491 72.3065 30.6398C71.9158 31.0305 71.3859 31.25 70.8333 31.25ZM66.6667 4.16667V14.5833H33.3333V4.16667H66.6667ZM33.3333 18.75H66.6667V22.9167H33.3333V18.75ZM29.1667 31.25C28.6141 31.25 28.0842 31.0305 27.6935 30.6398C27.3028 30.2491 27.0833 29.7192 27.0833 29.1667C27.0833 28.6141 27.3028 28.0842 27.6935 27.6935C28.0842 27.3028 28.6141 27.0833 29.1667 27.0833H31.25V31.25H29.1667ZM46.9583 64.5833L39.5833 53.5417V51C42.6667 53.0602 46.2917 54.1598 50 54.1598C53.7083 54.1598 57.3333 53.0602 60.4167 51V53.5417L53.0417 64.5833H46.9583Z" fill="white"/>
<path d="M50.0001 72.916C49.4475 72.916 48.9176 73.1355 48.5269 73.5262C48.1362 73.9169 47.9167 74.4468 47.9167 74.9993C47.9167 75.5519 48.1362 76.0818 48.5269 76.4725C48.9176 76.8632 49.4475 77.0827 50.0001 77.0827C50.5526 77.0827 51.0825 76.8632 51.4732 76.4725C51.8639 76.0818 52.0834 75.5519 52.0834 74.9993C52.0834 74.4468 51.8639 73.9169 51.4732 73.5262C51.0825 73.1355 50.5526 72.916 50.0001 72.916Z" fill="white"/>
<path d="M50.0001 87.5C49.4475 87.5 48.9176 87.7195 48.5269 88.1102C48.1362 88.5009 47.9167 89.0308 47.9167 89.5833C47.9167 90.1359 48.1362 90.6658 48.5269 91.0565C48.9176 91.4472 49.4475 91.6667 50.0001 91.6667C50.5526 91.6667 51.0825 91.4472 51.4732 91.0565C51.8639 90.6658 52.0834 90.1359 52.0834 89.5833C52.0834 89.0308 51.8639 88.5009 51.4732 88.1102C51.0825 87.7195 50.5526 87.5 50.0001 87.5Z" fill="white"/>
<path d="M77.0833 85.416H64.5833C64.0308 85.416 63.5009 85.6355 63.1102 86.0262C62.7195 86.4169 62.5 86.9468 62.5 87.4993C62.5 88.0519 62.7195 88.5818 63.1102 88.9725C63.5009 89.3632 64.0308 89.5827 64.5833 89.5827H77.0833C77.6359 89.5827 78.1658 89.3632 78.5565 88.9725C78.9472 88.5818 79.1667 88.0519 79.1667 87.4993C79.1667 86.9468 78.9472 86.4169 78.5565 86.0262C78.1658 85.6355 77.6359 85.416 77.0833 85.416Z" fill="white"/>
</svg>
