<svg width="101" height="100" viewBox="0 0 101 100" fill="none" xmlns="http://www.w3.org/2000/svg">
<path d="M98.7292 56.375C98.4316 53.9949 97.5516 51.7248 96.1671 49.7661C94.7825 47.8074 92.9362 46.2204 90.7917 45.1458L87.5 43.5V20.8333C87.5 15.308 85.3051 10.0089 81.3981 6.10194C77.4911 2.19493 72.192 0 66.6667 0C61.1413 0 55.8423 2.19493 51.9353 6.10194C48.0283 10.0089 45.8333 15.308 45.8333 20.8333V43.5C34.4375 49.2083 35.1458 51.9583 33.5833 64.5833H29.1667V58.3333C29.1626 54.8295 27.8971 51.4442 25.6017 48.7969C23.3063 46.1496 20.1346 44.4172 16.6667 43.9167V41.6667C16.6667 41.1141 16.4472 40.5842 16.0565 40.1935C15.6658 39.8028 15.1359 39.5833 14.5833 39.5833C14.0308 39.5833 13.5009 39.8028 13.1102 40.1935C12.7195 40.5842 12.5 41.1141 12.5 41.6667V43.9167C9.03209 44.4172 5.86032 46.1496 3.56496 48.7969C1.2696 51.4442 0.00410647 54.8295 0 58.3333L0 75C0 75.5525 0.219493 76.0824 0.610194 76.4731C1.0009 76.8638 1.5308 77.0833 2.08333 77.0833V97.9167C2.08333 98.4692 2.30283 98.9991 2.69353 99.3898C3.08423 99.7805 3.61413 100 4.16667 100C4.7192 100 5.24911 99.7805 5.63981 99.3898C6.03051 98.9991 6.25 98.4692 6.25 97.9167V77.0833H93.75V97.9167C93.75 98.4692 93.9695 98.9991 94.3602 99.3898C94.7509 99.7805 95.2808 100 95.8333 100C96.3859 100 96.9158 99.7805 97.3065 99.3898C97.6972 98.9991 97.9167 98.4692 97.9167 97.9167V77.0833C98.4692 77.0833 98.9991 76.8638 99.3898 76.4731C99.7805 76.0824 100 75.5525 100 75C100 64.3125 100.333 69.2083 98.7292 56.375ZM95.5625 64.5833H84.9583L83.5625 58.9792L86.8958 55.6458C87.2434 55.2952 87.4551 54.8325 87.4932 54.3403C87.5314 53.8481 87.3935 53.3583 87.1042 52.9583L81.5625 45.2083C95 51.9167 93.875 51.0417 95.5625 64.5833ZM50.6458 53.9375L56.6875 45.4583L58.1667 64.5833H52.6667C54.6667 56.625 55.1875 58.5 50.6458 53.9375ZM68.3125 18.9792C71.2083 21.0625 73.5833 20.8333 77.0833 20.8333V25C77.0833 27.7627 75.9859 30.4122 74.0324 32.3657C72.0789 34.3192 69.4293 35.4167 66.6667 35.4167C63.904 35.4167 61.2545 34.3192 59.301 32.3657C57.3475 30.4122 56.25 27.7627 56.25 25V20.8333C61.0208 20.8333 64.1458 21.1667 68.3125 18.9792ZM60.4167 38.1458C62.3645 39.0913 64.5015 39.5826 66.6667 39.5826C68.8319 39.5826 70.9688 39.0913 72.9167 38.1458C72.9152 40.3323 72.783 42.5168 72.5208 44.6875C68.7544 46.1464 64.579 46.1464 60.8125 44.6875C60.5486 42.5169 60.4165 40.3324 60.4167 38.1458ZM62.3542 64.5833L61.1667 49.2083C64.7579 50.2604 68.5755 50.2604 72.1667 49.2083L70.9792 64.5833H62.3542ZM75.1667 64.5833L76.6458 45.4583L82.6875 53.9375C78.1875 58.4583 78.6458 56.5208 80.6042 64.5833H75.1667ZM50 20.8333C50 16.4131 51.756 12.1738 54.8816 9.04822C58.0072 5.92261 62.2464 4.16667 66.6667 4.16667C71.0869 4.16667 75.3262 5.92261 78.4518 9.04822C81.5774 12.1738 83.3333 16.4131 83.3333 20.8333V41.4167L77.0833 38.2917V35.1875C81.9167 30.2292 81.25 25.25 81.25 18.75C81.25 15.0208 75.2292 17.5417 72 16.3333C74.4792 13.9583 71.25 11.2292 69.3542 13.1042C62.2708 20.2083 52.0833 13.75 52.0833 18.75C52.0833 25.3958 51.4167 30.25 56.25 35.1875V38.2917L50 41.4167V20.8333ZM51.7708 45.2083L46.2292 52.9583C45.9398 53.3583 45.802 53.8481 45.8401 54.3403C45.8783 54.8325 46.09 55.2952 46.4375 55.6458L49.7708 58.9792L48.375 64.5833H37.7708C39.4583 51.1042 38.25 51.9583 51.7708 45.2083ZM4.16667 60.4167H25V64.5833H4.16667V60.4167ZM24.7917 56.25H4.375C4.85316 53.8952 6.13069 51.7782 7.99113 50.2575C9.85157 48.7369 12.1805 47.9062 14.5833 47.9062C16.9862 47.9062 19.3151 48.7369 21.1755 50.2575C23.036 51.7782 24.3135 53.8952 24.7917 56.25ZM4.16667 72.9167V68.75H95.8333V72.9167H4.16667Z" fill="white"/>
</svg>
