<svg width="100" height="100" viewBox="0 0 100 100" fill="none" xmlns="http://www.w3.org/2000/svg">
<path d="M50.0487 99.9998C3.3238 99.9998 -13.9509 30.714 12.2733 26.1901C13.7719 25.9521 13.1267 25.8092 28.6323 43.5235C30.7136 45.9045 26.8007 57.0712 17.6639 59.1664C21.2614 68.3827 27.7106 75.752 35.7711 79.8569C36.3195 76.5239 37.7562 73.4667 39.8841 71.105C42.0119 68.7433 44.7265 67.1928 47.6553 66.6664C49.1538 66.4283 48.5086 66.2855 64.0142 83.9998C66.4701 86.8569 61.0588 99.9998 50.0487 99.9998ZM11.8987 31.1663C9.67193 31.8688 7.71274 33.3989 6.32981 35.5154C4.94689 37.632 4.21885 40.2148 4.26038 42.8568C4.26038 56.7492 9.0845 70.0725 17.6715 79.8959C26.2585 89.7192 37.9049 95.2379 50.0487 95.2379C52.3583 95.2854 54.616 94.4525 56.4662 92.8705C58.3163 91.2885 59.6538 89.0472 60.2679 86.4998L47.2806 71.6188C45.0503 72.3223 43.0885 73.8559 41.7053 75.9773C40.322 78.0988 39.5961 80.687 39.6423 83.3331C39.6377 83.7105 39.5547 84.0812 39.4003 84.4147C39.2458 84.7482 39.0243 85.0349 38.7539 85.2512C38.4835 85.4674 38.1721 85.6071 37.8453 85.6586C37.5184 85.7101 37.1856 85.672 36.8742 85.5474C31.3176 83.2771 26.2722 79.6209 22.1037 74.8439C17.9351 70.067 14.7478 64.2888 12.7729 57.9283C12.6649 57.5758 12.631 57.1992 12.6738 56.8289C12.7167 56.4586 12.8351 56.105 13.0194 55.7967C13.2038 55.4885 13.449 55.2342 13.7352 55.0543C14.0214 54.8745 14.3405 54.7743 14.6668 54.7616C16.9693 54.7985 19.2174 53.9607 21.0591 52.3795C22.9008 50.7983 24.232 48.5629 24.8443 46.0235L11.8987 31.1663Z" fill="white"/>
<path d="M56.2922 30.952C47.6341 30.952 46.7391 31.4043 46.0523 29.4758C45.3655 27.5472 46.3645 27.0948 53.9612 18.3567C54.0778 18.2171 54.1567 18.0419 54.1881 17.8521C54.2196 17.6624 54.2024 17.4663 54.1386 17.2876C54.0747 17.1088 53.967 16.955 53.8284 16.8447C53.6899 16.7345 53.5263 16.6725 53.3576 16.6662H47.9671C47.4151 16.6662 46.8857 16.4154 46.4954 15.9688C46.1051 15.5223 45.8858 14.9167 45.8858 14.2853C45.8858 13.6538 46.1051 13.0482 46.4954 12.6017C46.8857 12.1551 47.4151 11.9043 47.9671 11.9043H53.3576C54.3515 11.9035 55.3231 12.2404 56.1493 12.8723C56.9755 13.5043 57.6189 14.4028 57.998 15.4537C58.3771 16.5047 58.4747 17.6608 58.2785 18.7754C58.0822 19.8899 57.601 20.9127 56.8958 21.7138L52.983 26.19H56.2922C56.8442 26.19 57.3736 26.4409 57.7639 26.8874C58.1543 27.3339 58.3735 27.9395 58.3735 28.571C58.3735 29.2025 58.1543 29.8081 57.7639 30.2546C57.3736 30.7011 56.8442 30.952 56.2922 30.952Z" fill="white"/>
<path d="M68.7793 28.571V23.8091H62.5354C61.9834 23.8091 61.454 23.5582 61.0637 23.1117C60.6734 22.6652 60.4541 22.0596 60.4541 21.4281V14.2853C60.4541 13.6538 60.6734 13.0482 61.0637 12.6017C61.454 12.1551 61.9834 11.9043 62.5354 11.9043C63.0874 11.9043 63.6168 12.1551 64.0071 12.6017C64.3974 13.0482 64.6167 13.6538 64.6167 14.2853V19.0472H68.7793V14.2853C68.7793 13.6538 68.9985 13.0482 69.3889 12.6017C69.7792 12.1551 70.3086 11.9043 70.8605 11.9043C71.4125 11.9043 71.9419 12.1551 72.3322 12.6017C72.7226 13.0482 72.9418 13.6538 72.9418 14.2853V28.571C72.9418 29.2025 72.7226 29.8081 72.3322 30.2546C71.9419 30.7011 71.4125 30.952 70.8605 30.952C70.3086 30.952 69.7792 30.7011 69.3889 30.2546C68.9985 29.8081 68.7793 29.2025 68.7793 28.571Z" fill="white"/>
<path d="M87.5127 28.571V23.8091H83.3501V28.571C83.3501 29.2025 83.1308 29.8081 82.7405 30.2546C82.3502 30.7011 81.8208 30.952 81.2688 30.952C80.7168 30.952 80.1874 30.7011 79.7971 30.2546C79.4068 29.8081 79.1875 29.2025 79.1875 28.571V14.2853C79.1875 13.6538 79.4068 13.0482 79.7971 12.6017C80.1874 12.1551 80.7168 11.9043 81.2688 11.9043C81.8208 11.9043 82.3502 12.1551 82.7405 12.6017C83.1308 13.0482 83.3501 13.6538 83.3501 14.2853V19.0472H89.5939C90.1459 19.0472 90.6753 19.298 91.0656 19.7445C91.456 20.1911 91.6752 20.7967 91.6752 21.4281V28.571C91.6752 29.2025 91.456 29.8081 91.0656 30.2546C90.6753 30.7011 90.1459 30.952 89.5939 30.952C89.042 30.952 88.5126 30.7011 88.1223 30.2546C87.7319 29.8081 87.5127 29.2025 87.5127 28.571Z" fill="white"/>
<path d="M50.049 61.9049C49.6127 61.9062 49.187 61.7506 48.8322 61.46C48.4774 61.1695 48.2114 60.7588 48.0718 60.2858L44.3463 47.4525C42.4394 47.0418 40.7177 45.882 39.4789 44.1735C38.24 42.465 37.5617 40.3151 37.5613 38.0953V9.52383C37.5613 6.99795 38.4384 4.57553 39.9997 2.78946C41.5609 1.0034 43.6785 0 45.8864 0H91.6748C93.8828 0 96.0003 1.0034 97.5616 2.78946C99.1229 4.57553 100 6.99795 100 9.52383V38.0953C100 40.6212 99.1229 43.0436 97.5616 44.8297C96.0003 46.6157 93.8828 47.6192 91.6748 47.6192C62.287 47.6192 63.8272 47.1192 62.1829 49.0239C50.7775 62.0478 51.2562 61.9049 50.049 61.9049ZM45.8864 4.76192C44.7825 4.76192 43.7237 5.26362 42.9431 6.15665C42.1624 7.04968 41.7239 8.26089 41.7239 9.52383V38.0953C41.7239 39.3583 42.1624 40.5695 42.9431 41.4625C43.7237 42.3555 44.7825 42.8572 45.8864 42.8572C47.8428 42.8572 47.718 44.0001 50.9648 55.1192L59.2899 45.5953C62.5368 41.9049 63.3485 42.8572 91.6748 42.8572C92.7788 42.8572 93.8376 42.3555 94.6182 41.4625C95.3988 40.5695 95.8374 39.3583 95.8374 38.0953V9.52383C95.8374 8.26089 95.3988 7.04968 94.6182 6.15665C93.8376 5.26362 92.7788 4.76192 91.6748 4.76192H45.8864Z" fill="white"/>
</svg>
