<svg width="100" height="100" viewBox="0 0 100 100" fill="none" xmlns="http://www.w3.org/2000/svg">
<path d="M44.6222 11.0279L43.8879 15.3122C43.8387 15.5997 43.8709 15.8953 43.9808 16.1655C44.0907 16.4357 44.274 16.6697 44.5099 16.8412C44.7458 17.0126 45.025 17.1145 45.3157 17.1355C45.6065 17.1564 45.8973 17.0955 46.1554 16.9597L50.001 14.9383L53.8469 16.9601C54.1049 17.0959 54.3958 17.1567 54.6865 17.1358C54.9773 17.1148 55.2564 17.0129 55.4923 16.8415C55.7283 16.6701 55.9115 16.436 56.0215 16.1658C56.1314 15.8956 56.1636 15.6 56.1144 15.3125L55.38 11.0282L58.4905 7.99269C58.6994 7.78921 58.8471 7.53129 58.9171 7.24813C58.987 6.96497 58.9764 6.66787 58.8864 6.39044C58.7964 6.11302 58.6305 5.86634 58.4077 5.67833C58.1848 5.49032 57.9138 5.36849 57.6254 5.32661L53.3254 4.70117L51.4018 0.801887C51.2583 0.557718 51.0536 0.355286 50.8079 0.214637C50.5622 0.0739878 50.284 0 50.001 0C49.7179 0 49.4398 0.0739878 49.1941 0.214637C48.9484 0.355286 48.7437 0.557718 48.6002 0.801887L46.6769 4.70024L42.3769 5.32567C42.0885 5.36755 41.8175 5.48939 41.5946 5.67739C41.3717 5.8654 41.2059 6.11208 41.1159 6.3895C41.0259 6.66693 41.0152 6.96403 41.0852 7.2472C41.1552 7.53036 41.3029 7.78827 41.5118 7.99175L44.6222 11.0279ZM47.9396 7.67622C48.1902 7.63987 48.4282 7.54302 48.633 7.39403C48.8378 7.24504 49.0033 7.0484 49.1152 6.82109L50.001 5.02734L50.8868 6.8214C50.9987 7.04872 51.1642 7.24536 51.369 7.39434C51.5738 7.54333 51.8118 7.64018 52.0624 7.67653L54.0422 7.96517L52.6102 9.36224C52.4288 9.53913 52.2931 9.75745 52.2147 9.99844C52.1363 10.2394 52.1175 10.4959 52.16 10.7457L52.4988 12.7185L50.728 11.7883C50.5039 11.67 50.2544 11.6082 50.001 11.6082C49.7476 11.6082 49.4981 11.67 49.274 11.7883L47.5032 12.7182L47.8419 10.7454C47.8844 10.4956 47.8657 10.2391 47.7873 9.99813C47.7089 9.75714 47.5731 9.53881 47.3918 9.36193L45.9597 7.96486L47.9396 7.67622Z" fill="white"/>
<path d="M66.4977 18.8463L65.7633 23.1305C65.7142 23.4181 65.7464 23.7137 65.8563 23.9839C65.9662 24.2541 66.1495 24.4881 66.3854 24.6595C66.6213 24.8309 66.9004 24.9329 67.1912 24.9538C67.482 24.9748 67.7728 24.9139 68.0308 24.7781L71.8765 22.7567L75.7224 24.7784C75.9804 24.9142 76.2713 24.9751 76.562 24.9541C76.8528 24.9332 77.1319 24.8312 77.3678 24.6598C77.6037 24.4884 77.787 24.2544 77.8969 23.9842C78.0069 23.714 78.0391 23.4184 77.9899 23.1309L77.2555 18.8466L80.366 15.8111C80.5748 15.6076 80.7226 15.3497 80.7926 15.0665C80.8625 14.7833 80.8519 14.4862 80.7619 14.2088C80.6718 13.9314 80.506 13.6847 80.2832 13.4967C80.0603 13.3087 79.7893 13.1868 79.5008 13.145L75.2008 12.5195L73.2772 8.62025C73.1338 8.37608 72.9291 8.17365 72.6834 8.033C72.4377 7.89235 72.1595 7.81836 71.8765 7.81836C71.5934 7.81836 71.3153 7.89235 71.0696 8.033C70.8239 8.17365 70.6192 8.37608 70.4757 8.62025L68.5524 12.5186L64.2524 13.144C63.9639 13.1859 63.6929 13.3077 63.4701 13.4958C63.2472 13.6838 63.0814 13.9304 62.9914 14.2079C62.9014 14.4853 62.8907 14.7824 62.9607 15.0656C63.0306 15.3487 63.1784 15.6066 63.3872 15.8101L66.4977 18.8463ZM69.8151 15.4946C70.0657 15.4582 70.3036 15.3614 70.5085 15.2124C70.7133 15.0634 70.8788 14.8668 70.9907 14.6395L71.8765 12.8457L72.7622 14.6398C72.8741 14.8671 73.0396 15.0637 73.2445 15.2127C73.4493 15.3617 73.6873 15.4585 73.9379 15.4949L75.9177 15.7835L74.4857 17.1806C74.3043 17.3575 74.1686 17.5758 74.0902 17.8168C74.0117 18.0578 73.993 18.3142 74.0355 18.5641L74.3743 20.5369L72.6035 19.607C72.3794 19.4887 72.1298 19.4269 71.8765 19.4269C71.6231 19.4269 71.3735 19.4887 71.1494 19.607L69.3787 20.5369L69.7174 18.5641C69.7599 18.3142 69.7412 18.0578 69.6628 17.8168C69.5844 17.5758 69.4486 17.3575 69.2673 17.1806L67.8352 15.7835L69.8151 15.4946Z" fill="white"/>
<path d="M85.2474 29.7907L84.513 34.0749C84.4639 34.3625 84.4961 34.658 84.606 34.9282C84.7159 35.1984 84.8992 35.4325 85.1351 35.6039C85.371 35.7753 85.6501 35.8772 85.9409 35.8982C86.2317 35.9191 86.5225 35.8583 86.7805 35.7225L90.6262 33.7011L94.4721 35.7228C94.7301 35.8586 95.0209 35.9195 95.3117 35.8985C95.6025 35.8775 95.8816 35.7756 96.1175 35.6042C96.3534 35.4328 96.5367 35.1988 96.6466 34.9286C96.7566 34.6584 96.7888 34.3628 96.7396 34.0752L96.0052 29.791L99.1157 26.7554C99.3245 26.5519 99.4723 26.294 99.5423 26.0109C99.6122 25.7277 99.6016 25.4306 99.5116 25.1532C99.4215 24.8757 99.2557 24.6291 99.0328 24.4411C98.81 24.2531 98.539 24.1312 98.2505 24.0893L93.9505 23.4639L92.0273 19.5656C91.8838 19.3214 91.6791 19.119 91.4334 18.9783C91.1877 18.8377 90.9095 18.7637 90.6265 18.7637C90.3434 18.7637 90.0653 18.8377 89.8196 18.9783C89.5739 19.119 89.3692 19.3214 89.2257 19.5656L87.3024 23.4639L83.0024 24.0893C82.7139 24.1312 82.443 24.2531 82.2201 24.4411C81.9972 24.6291 81.8314 24.8757 81.7414 25.1532C81.6514 25.4306 81.6407 25.7277 81.7107 26.0109C81.7806 26.294 81.9284 26.5519 82.1373 26.7554L85.2474 29.7907ZM88.5647 26.439C88.8153 26.4026 89.0533 26.3057 89.2582 26.1568C89.463 26.0078 89.6285 25.8111 89.7404 25.5838L90.6262 23.7901L91.5119 25.5841C91.6238 25.8115 91.7893 26.0081 91.9942 26.1571C92.199 26.3061 92.437 26.4029 92.6876 26.4393L94.6674 26.7279L93.2354 28.125C93.054 28.3019 92.9183 28.5202 92.8399 28.7612C92.7614 29.0022 92.7427 29.2586 92.7852 29.5084L93.124 31.4812L91.3532 30.5514C91.1291 30.4331 90.8795 30.3712 90.6262 30.3712C90.3728 30.3712 90.1232 30.4331 89.8991 30.5514L88.1283 31.4812L88.4671 29.5084C88.5096 29.2586 88.4909 29.0022 88.4125 28.7612C88.3341 28.5202 88.1983 28.3019 88.0169 28.125L86.5849 26.7279L88.5647 26.439Z" fill="white"/>
<path d="M22.7487 18.8463L22.0143 23.1305C21.9651 23.4181 21.9973 23.7137 22.1073 23.9839C22.2172 24.2541 22.4005 24.4881 22.6364 24.6595C22.8723 24.8309 23.1514 24.9329 23.4422 24.9538C23.733 24.9748 24.0238 24.9139 24.2818 24.7781L28.1274 22.7567L31.9734 24.7784C32.2314 24.9142 32.5222 24.9751 32.813 24.9541C33.1038 24.9332 33.3829 24.8312 33.6188 24.6598C33.8547 24.4884 34.038 24.2544 34.1479 23.9842C34.2579 23.714 34.2901 23.4184 34.2409 23.1309L33.5065 18.8466L36.617 15.8111C36.8258 15.6076 36.9736 15.3497 37.0435 15.0665C37.1135 14.7833 37.1029 14.4862 37.0128 14.2088C36.9228 13.9314 36.757 13.6847 36.5341 13.4967C36.3113 13.3087 36.0403 13.1868 35.7518 13.145L31.4518 12.5195L29.5282 8.62025C29.3848 8.37608 29.18 8.17365 28.9343 8.033C28.6886 7.89235 28.4105 7.81836 28.1274 7.81836C27.8444 7.81836 27.5662 7.89235 27.3206 8.033C27.0749 8.17365 26.8701 8.37608 26.7267 8.62025L24.8034 12.5186L20.5034 13.144C20.2149 13.1859 19.9439 13.3077 19.7211 13.4958C19.4982 13.6838 19.3324 13.9304 19.2424 14.2079C19.1523 14.4853 19.1417 14.7824 19.2117 15.0656C19.2816 15.3487 19.4294 15.6066 19.6382 15.8101L22.7487 18.8463ZM26.066 15.4946C26.3166 15.4582 26.5546 15.3614 26.7594 15.2124C26.9643 15.0634 27.1298 14.8668 27.2417 14.6395L28.1274 12.8457L29.0132 14.6398C29.1251 14.8671 29.2906 15.0637 29.4954 15.2127C29.7003 15.3617 29.9383 15.4585 30.1889 15.4949L32.1687 15.7835L30.7367 17.1806C30.5553 17.3575 30.4196 17.5758 30.3411 17.8168C30.2627 18.0578 30.244 18.3142 30.2865 18.5641L30.6253 20.5369L28.8545 19.607C28.6304 19.4887 28.3808 19.4269 28.1274 19.4269C27.8741 19.4269 27.6245 19.4887 27.4004 19.607L25.6296 20.5369L25.9684 18.5641C26.0109 18.3142 25.9922 18.0578 25.9138 17.8168C25.8353 17.5758 25.6996 17.3575 25.5182 17.1806L24.0862 15.7835L26.066 15.4946Z" fill="white"/>
<path d="M3.99869 29.7916L3.26432 34.0759C3.21515 34.3634 3.24735 34.659 3.35728 34.9292C3.46721 35.1994 3.65049 35.4334 3.8864 35.6048C4.1223 35.7762 4.40142 35.8782 4.69219 35.8991C4.98297 35.9201 5.27381 35.8592 5.53182 35.7234L9.37744 33.702L13.2234 35.7237C13.4814 35.8595 13.7722 35.9204 14.063 35.8994C14.3538 35.8785 14.6329 35.7765 14.8688 35.6051C15.1047 35.4337 15.288 35.1997 15.3979 34.9295C15.5079 34.6593 15.5401 34.3637 15.4909 34.0762L14.7565 29.7919L17.867 26.7564C18.0758 26.5529 18.2236 26.295 18.2935 26.0118C18.3635 25.7286 18.3529 25.4315 18.2628 25.1541C18.1728 24.8767 18.007 24.63 17.7841 24.442C17.5613 24.254 17.2903 24.1322 17.0018 24.0903L12.7018 23.4648L10.7782 19.5656C10.6348 19.3214 10.43 19.119 10.1843 18.9783C9.93864 18.8377 9.6605 18.7637 9.37744 18.7637C9.09439 18.7637 8.81624 18.8377 8.57055 18.9783C8.32486 19.119 8.12014 19.3214 7.97666 19.5656L6.05338 23.4639L1.75338 24.0893C1.46492 24.1312 1.19393 24.2531 0.971069 24.4411C0.748212 24.6291 0.582388 24.8757 0.492362 25.1532C0.402336 25.4306 0.391701 25.7277 0.461661 26.0109C0.531621 26.294 0.679383 26.5519 0.888226 26.7554L3.99869 29.7916ZM7.31604 26.4399C7.56663 26.4035 7.80462 26.3067 8.00944 26.1577C8.21427 26.0087 8.37977 25.8121 8.49166 25.5848L9.37744 23.791L10.2632 25.5851C10.3751 25.8124 10.5406 26.009 10.7454 26.158C10.9503 26.307 11.1883 26.4039 11.4389 26.4402L13.4187 26.7288L11.9867 28.1259C11.8053 28.3028 11.6696 28.5211 11.5911 28.7621C11.5127 29.0031 11.494 29.2595 11.5365 29.5094L11.8753 31.4822L10.1045 30.552C9.88037 30.4337 9.63082 30.3719 9.37744 30.3719C9.12407 30.3719 8.87452 30.4337 8.65041 30.552L6.87963 31.4819L7.21838 29.5091C7.26091 29.2592 7.24216 29.0028 7.16375 28.7618C7.08534 28.5208 6.9496 28.3025 6.76823 28.1256L5.33619 26.7285L7.31604 26.4399Z" fill="white"/>
<path d="M98.4375 96.8723H96.875V45.2737H98.4375C98.8519 45.2737 99.2493 45.109 99.5424 44.8158C99.8354 44.5225 100 44.1248 100 43.7101C100 43.2955 99.8354 42.8977 99.5424 42.6045C99.2493 42.3113 98.8519 42.1465 98.4375 42.1465H70.3125V29.6378C70.3125 29.2231 70.1479 28.8254 69.8549 28.5322C69.5618 28.239 69.1644 28.0742 68.75 28.0742H31.25C30.8356 28.0742 30.4382 28.239 30.1451 28.5322C29.8521 28.8254 29.6875 29.2231 29.6875 29.6378V42.1465H1.5625C1.1481 42.1465 0.750671 42.3113 0.457646 42.6045C0.16462 42.8977 0 43.2955 0 43.7101C0 44.1248 0.16462 44.5225 0.457646 44.8158C0.750671 45.109 1.1481 45.2737 1.5625 45.2737H3.125V96.8723H1.5625C1.1481 96.8723 0.750671 97.037 0.457646 97.3302C0.16462 97.6235 0 98.0212 0 98.4359C0 98.8506 0.16462 99.2483 0.457646 99.5415C0.750671 99.8347 1.1481 99.9995 1.5625 99.9995H98.4375C98.8519 99.9995 99.2493 99.8347 99.5424 99.5415C99.8354 99.2483 100 98.8506 100 98.4359C100 98.0212 99.8354 97.6235 99.5424 97.3302C99.2493 97.037 98.8519 96.8723 98.4375 96.8723ZM6.25 45.2737H29.6875V96.8723H6.25V45.2737ZM32.8125 31.2014H67.1875V96.8723H59.375V78.1092C59.375 77.6945 59.2104 77.2968 58.9174 77.0035C58.6243 76.7103 58.2269 76.5456 57.8125 76.5456H42.1875C41.7731 76.5456 41.3757 76.7103 41.0826 77.0035C40.7896 77.2968 40.625 77.6945 40.625 78.1092V96.8723H32.8125V31.2014ZM43.75 82.7999V79.6728H56.25V82.7999H43.75ZM43.75 85.9271H48.4375V96.8723H43.75V85.9271ZM51.5625 96.8723V85.9271H56.25V96.8723H51.5625ZM70.3125 96.8723V45.2737H93.75V96.8723H70.3125Z" fill="white"/>
<path d="M46.8745 74.9831H53.1245C53.5389 74.9831 53.9363 74.8184 54.2294 74.5252C54.5224 74.2319 54.687 73.8342 54.687 73.4195V67.1652C54.687 66.7505 54.5224 66.3528 54.2294 66.0595C53.9363 65.7663 53.5389 65.6016 53.1245 65.6016H46.8745C46.4601 65.6016 46.0627 65.7663 45.7697 66.0595C45.4766 66.3528 45.312 66.7505 45.312 67.1652V73.4195C45.312 73.8342 45.4766 74.2319 45.7697 74.5252C46.0627 74.8184 46.4601 74.9831 46.8745 74.9831ZM48.437 68.7287H51.562V71.8559H48.437V68.7287Z" fill="white"/>
<path d="M57.8125 74.9831H64.0625C64.4769 74.9831 64.8743 74.8184 65.1674 74.5252C65.4604 74.2319 65.625 73.8342 65.625 73.4195V67.1652C65.625 66.7505 65.4604 66.3528 65.1674 66.0595C64.8743 65.7663 64.4769 65.6016 64.0625 65.6016H57.8125C57.3981 65.6016 57.0007 65.7663 56.7076 66.0595C56.4146 66.3528 56.25 66.7505 56.25 67.1652V73.4195C56.25 73.8342 56.4146 74.2319 56.7076 74.5252C57.0007 74.8184 57.3981 74.9831 57.8125 74.9831ZM59.375 68.7287H62.5V71.8559H59.375V68.7287Z" fill="white"/>
<path d="M42.1875 74.9831C42.6019 74.9831 42.9993 74.8184 43.2924 74.5252C43.5854 74.2319 43.75 73.8342 43.75 73.4195V67.1652C43.75 66.7505 43.5854 66.3528 43.2924 66.0595C42.9993 65.7663 42.6019 65.6016 42.1875 65.6016H35.9375C35.5231 65.6016 35.1257 65.7663 34.8326 66.0595C34.5396 66.3528 34.375 66.7505 34.375 67.1652V73.4195C34.375 73.8342 34.5396 74.2319 34.8326 74.5252C35.1257 74.8184 35.5231 74.9831 35.9375 74.9831H42.1875ZM37.5 68.7287H40.625V71.8559H37.5V68.7287Z" fill="white"/>
<path d="M46.8745 64.0378H53.1245C53.5389 64.0378 53.9363 63.8731 54.2294 63.5798C54.5224 63.2866 54.687 62.8889 54.687 62.4742V56.2198C54.687 55.8052 54.5224 55.4074 54.2294 55.1142C53.9363 54.821 53.5389 54.6562 53.1245 54.6562H46.8745C46.4601 54.6562 46.0627 54.821 45.7697 55.1142C45.4766 55.4074 45.312 55.8052 45.312 56.2198V62.4742C45.312 62.8889 45.4766 63.2866 45.7697 63.5798C46.0627 63.8731 46.4601 64.0378 46.8745 64.0378ZM48.437 57.7834H51.562V60.9106H48.437V57.7834Z" fill="white"/>
<path d="M57.8125 64.0378H64.0625C64.4769 64.0378 64.8743 63.8731 65.1674 63.5798C65.4604 63.2866 65.625 62.8889 65.625 62.4742V56.2198C65.625 55.8052 65.4604 55.4074 65.1674 55.1142C64.8743 54.821 64.4769 54.6562 64.0625 54.6562H57.8125C57.3981 54.6562 57.0007 54.821 56.7076 55.1142C56.4146 55.4074 56.25 55.8052 56.25 56.2198V62.4742C56.25 62.8889 56.4146 63.2866 56.7076 63.5798C57.0007 63.8731 57.3981 64.0378 57.8125 64.0378ZM59.375 57.7834H62.5V60.9106H59.375V57.7834Z" fill="white"/>
<path d="M35.9375 64.0378H42.1875C42.6019 64.0378 42.9993 63.8731 43.2924 63.5798C43.5854 63.2866 43.75 62.8889 43.75 62.4742V56.2198C43.75 55.8052 43.5854 55.4074 43.2924 55.1142C42.9993 54.821 42.6019 54.6562 42.1875 54.6562H35.9375C35.5231 54.6562 35.1257 54.821 34.8326 55.1142C34.5396 55.4074 34.375 55.8052 34.375 56.2198V62.4742C34.375 62.8889 34.5396 63.2866 34.8326 63.5798C35.1257 63.8731 35.5231 64.0378 35.9375 64.0378ZM37.5 57.7834H40.625V60.9106H37.5V57.7834Z" fill="white"/>
<path d="M46.8745 53.0925H53.1245C53.5389 53.0925 53.9363 52.9278 54.2294 52.6345C54.5224 52.3413 54.687 51.9436 54.687 51.5289V45.2745C54.687 44.8598 54.5224 44.4621 54.2294 44.1689C53.9363 43.8757 53.5389 43.7109 53.1245 43.7109H46.8745C46.4601 43.7109 46.0627 43.8757 45.7697 44.1689C45.4766 44.4621 45.312 44.8598 45.312 45.2745V51.5289C45.312 51.9436 45.4766 52.3413 45.7697 52.6345C46.0627 52.9278 46.4601 53.0925 46.8745 53.0925ZM48.437 46.8381H51.562V49.9653H48.437V46.8381Z" fill="white"/>
<path d="M57.8125 53.0925H64.0625C64.4769 53.0925 64.8743 52.9278 65.1674 52.6345C65.4604 52.3413 65.625 51.9436 65.625 51.5289V45.2745C65.625 44.8598 65.4604 44.4621 65.1674 44.1689C64.8743 43.8757 64.4769 43.7109 64.0625 43.7109H57.8125C57.3981 43.7109 57.0007 43.8757 56.7076 44.1689C56.4146 44.4621 56.25 44.8598 56.25 45.2745V51.5289C56.25 51.9436 56.4146 52.3413 56.7076 52.6345C57.0007 52.9278 57.3981 53.0925 57.8125 53.0925ZM59.375 46.8381H62.5V49.9653H59.375V46.8381Z" fill="white"/>
<path d="M35.9375 53.0925H42.1875C42.6019 53.0925 42.9993 52.9278 43.2924 52.6345C43.5854 52.3413 43.75 51.9436 43.75 51.5289V45.2745C43.75 44.8598 43.5854 44.4621 43.2924 44.1689C42.9993 43.8757 42.6019 43.7109 42.1875 43.7109H35.9375C35.5231 43.7109 35.1257 43.8757 34.8326 44.1689C34.5396 44.4621 34.375 44.8598 34.375 45.2745V51.5289C34.375 51.9436 34.5396 52.3413 34.8326 52.6345C35.1257 52.9278 35.5231 53.0925 35.9375 53.0925ZM37.5 46.8381H40.625V49.9653H37.5V46.8381Z" fill="white"/>
<path d="M46.8745 42.1472H53.1245C53.5389 42.1472 53.9363 41.9824 54.2294 41.6892C54.5224 41.396 54.687 40.9983 54.687 40.5836V34.3292C54.687 33.9145 54.5224 33.5168 54.2294 33.2236C53.9363 32.9304 53.5389 32.7656 53.1245 32.7656H46.8745C46.4601 32.7656 46.0627 32.9304 45.7697 33.2236C45.4766 33.5168 45.312 33.9145 45.312 34.3292V40.5836C45.312 40.9983 45.4766 41.396 45.7697 41.6892C46.0627 41.9824 46.4601 42.1472 46.8745 42.1472ZM48.437 35.8928H51.562V39.02H48.437V35.8928Z" fill="white"/>
<path d="M57.8125 42.1472H64.0625C64.4769 42.1472 64.8743 41.9824 65.1674 41.6892C65.4604 41.396 65.625 40.9983 65.625 40.5836V34.3292C65.625 33.9145 65.4604 33.5168 65.1674 33.2236C64.8743 32.9304 64.4769 32.7656 64.0625 32.7656H57.8125C57.3981 32.7656 57.0007 32.9304 56.7076 33.2236C56.4146 33.5168 56.25 33.9145 56.25 34.3292V40.5836C56.25 40.9983 56.4146 41.396 56.7076 41.6892C57.0007 41.9824 57.3981 42.1472 57.8125 42.1472ZM59.375 35.8928H62.5V39.02H59.375V35.8928Z" fill="white"/>
<path d="M79.688 49.9648H73.438C73.0236 49.9648 72.6262 50.1296 72.3331 50.4228C72.0401 50.716 71.8755 51.1137 71.8755 51.5284V57.7828C71.8755 58.1975 72.0401 58.5952 72.3331 58.8884C72.6262 59.1817 73.0236 59.3464 73.438 59.3464H79.688C80.1024 59.3464 80.4998 59.1817 80.7928 58.8884C81.0859 58.5952 81.2505 58.1975 81.2505 57.7828V51.5284C81.2505 51.1137 81.0859 50.716 80.7928 50.4228C80.4998 50.1296 80.1024 49.9648 79.688 49.9648ZM78.1255 56.2192H75.0005V53.092H78.1255V56.2192Z" fill="white"/>
<path d="M90.6245 49.9648H84.3745C83.9601 49.9648 83.5627 50.1296 83.2697 50.4228C82.9766 50.716 82.812 51.1137 82.812 51.5284V57.7828C82.812 58.1975 82.9766 58.5952 83.2697 58.8884C83.5627 59.1817 83.9601 59.3464 84.3745 59.3464H90.6245C91.0389 59.3464 91.4363 59.1817 91.7294 58.8884C92.0224 58.5952 92.187 58.1975 92.187 57.7828V51.5284C92.187 51.1137 92.0224 50.716 91.7294 50.4228C91.4363 50.1296 91.0389 49.9648 90.6245 49.9648ZM89.062 56.2192H85.937V53.092H89.062V56.2192Z" fill="white"/>
<path d="M79.688 60.9102H73.438C73.0236 60.9102 72.6262 61.0749 72.3331 61.3681C72.0401 61.6614 71.8755 62.0591 71.8755 62.4737V68.7281C71.8755 69.1428 72.0401 69.5405 72.3331 69.8337C72.6262 70.127 73.0236 70.2917 73.438 70.2917H79.688C80.1024 70.2917 80.4998 70.127 80.7928 69.8337C81.0859 69.5405 81.2505 69.1428 81.2505 68.7281V62.4737C81.2505 62.0591 81.0859 61.6614 80.7928 61.3681C80.4998 61.0749 80.1024 60.9102 79.688 60.9102ZM78.1255 67.1645H75.0005V64.0373H78.1255V67.1645Z" fill="white"/>
<path d="M90.6245 60.9102H84.3745C83.9601 60.9102 83.5627 61.0749 83.2697 61.3681C82.9766 61.6614 82.812 62.0591 82.812 62.4737V68.7281C82.812 69.1428 82.9766 69.5405 83.2697 69.8337C83.5627 70.127 83.9601 70.2917 84.3745 70.2917H90.6245C91.0389 70.2917 91.4363 70.127 91.7294 69.8337C92.0224 69.5405 92.187 69.1428 92.187 68.7281V62.4737C92.187 62.0591 92.0224 61.6614 91.7294 61.3681C91.4363 61.0749 91.0389 60.9102 90.6245 60.9102ZM89.062 67.1645H85.937V64.0373H89.062V67.1645Z" fill="white"/>
<path d="M79.688 71.8555H73.438C73.0236 71.8555 72.6262 72.0202 72.3331 72.3134C72.0401 72.6067 71.8755 73.0044 71.8755 73.4191V79.6734C71.8755 80.0881 72.0401 80.4858 72.3331 80.7791C72.6262 81.0723 73.0236 81.237 73.438 81.237H79.688C80.1024 81.237 80.4998 81.0723 80.7928 80.7791C81.0859 80.4858 81.2505 80.0881 81.2505 79.6734V73.4191C81.2505 73.0044 81.0859 72.6067 80.7928 72.3134C80.4998 72.0202 80.1024 71.8555 79.688 71.8555ZM78.1255 78.1098H75.0005V74.9827H78.1255V78.1098Z" fill="white"/>
<path d="M90.6245 71.8555H84.3745C83.9601 71.8555 83.5627 72.0202 83.2697 72.3134C82.9766 72.6067 82.812 73.0044 82.812 73.4191V79.6734C82.812 80.0881 82.9766 80.4858 83.2697 80.7791C83.5627 81.0723 83.9601 81.237 84.3745 81.237H90.6245C91.0389 81.237 91.4363 81.0723 91.7294 80.7791C92.0224 80.4858 92.187 80.0881 92.187 79.6734V73.4191C92.187 73.0044 92.0224 72.6067 91.7294 72.3134C91.4363 72.0202 91.0389 71.8555 90.6245 71.8555ZM89.062 78.1098H85.937V74.9827H89.062V78.1098Z" fill="white"/>
<path d="M79.688 82.8008H73.438C73.0236 82.8008 72.6262 82.9655 72.3331 83.2587C72.0401 83.552 71.8755 83.9497 71.8755 84.3644V90.6187C71.8755 91.0334 72.0401 91.4311 72.3331 91.7244C72.6262 92.0176 73.0236 92.1823 73.438 92.1823H79.688C80.1024 92.1823 80.4998 92.0176 80.7928 91.7244C81.0859 91.4311 81.2505 91.0334 81.2505 90.6187V84.3644C81.2505 83.9497 81.0859 83.552 80.7928 83.2587C80.4998 82.9655 80.1024 82.8008 79.688 82.8008ZM78.1255 89.0552H75.0005V85.928H78.1255V89.0552Z" fill="white"/>
<path d="M90.6245 82.8008H84.3745C83.9601 82.8008 83.5627 82.9655 83.2697 83.2587C82.9766 83.552 82.812 83.9497 82.812 84.3644V90.6187C82.812 91.0334 82.9766 91.4311 83.2697 91.7244C83.5627 92.0176 83.9601 92.1823 84.3745 92.1823H90.6245C91.0389 92.1823 91.4363 92.0176 91.7294 91.7244C92.0224 91.4311 92.187 91.0334 92.187 90.6187V84.3644C92.187 83.9497 92.0224 83.552 91.7294 83.2587C91.4363 82.9655 91.0389 82.8008 90.6245 82.8008ZM89.062 89.0552H85.937V85.928H89.062V89.0552Z" fill="white"/>
<path d="M35.9375 42.1472H42.1875C42.6019 42.1472 42.9993 41.9824 43.2924 41.6892C43.5854 41.396 43.75 40.9983 43.75 40.5836V34.3292C43.75 33.9145 43.5854 33.5168 43.2924 33.2236C42.9993 32.9304 42.6019 32.7656 42.1875 32.7656H35.9375C35.5231 32.7656 35.1257 32.9304 34.8326 33.2236C34.5396 33.5168 34.375 33.9145 34.375 34.3292V40.5836C34.375 40.9983 34.5396 41.396 34.8326 41.6892C35.1257 41.9824 35.5231 42.1472 35.9375 42.1472ZM37.5 35.8928H40.625V39.02H37.5V35.8928Z" fill="white"/>
<path d="M26.5625 49.9648H20.3125C19.8981 49.9648 19.5007 50.1296 19.2076 50.4228C18.9146 50.716 18.75 51.1137 18.75 51.5284V57.7828C18.75 58.1975 18.9146 58.5952 19.2076 58.8884C19.5007 59.1817 19.8981 59.3464 20.3125 59.3464H26.5625C26.9769 59.3464 27.3743 59.1817 27.6674 58.8884C27.9604 58.5952 28.125 58.1975 28.125 57.7828V51.5284C28.125 51.1137 27.9604 50.716 27.6674 50.4228C27.3743 50.1296 26.9769 49.9648 26.5625 49.9648ZM25 56.2192H21.875V53.092H25V56.2192Z" fill="white"/>
<path d="M15.625 49.9648H9.375C8.9606 49.9648 8.56317 50.1296 8.27015 50.4228C7.97712 50.716 7.8125 51.1137 7.8125 51.5284V57.7828C7.8125 58.1975 7.97712 58.5952 8.27015 58.8884C8.56317 59.1817 8.9606 59.3464 9.375 59.3464H15.625C16.0394 59.3464 16.4368 59.1817 16.7299 58.8884C17.0229 58.5952 17.1875 58.1975 17.1875 57.7828V51.5284C17.1875 51.1137 17.0229 50.716 16.7299 50.4228C16.4368 50.1296 16.0394 49.9648 15.625 49.9648ZM14.0625 56.2192H10.9375V53.092H14.0625V56.2192Z" fill="white"/>
<path d="M26.5625 60.9102H20.3125C19.8981 60.9102 19.5007 61.0749 19.2076 61.3681C18.9146 61.6614 18.75 62.0591 18.75 62.4737V68.7281C18.75 69.1428 18.9146 69.5405 19.2076 69.8337C19.5007 70.127 19.8981 70.2917 20.3125 70.2917H26.5625C26.9769 70.2917 27.3743 70.127 27.6674 69.8337C27.9604 69.5405 28.125 69.1428 28.125 68.7281V62.4737C28.125 62.0591 27.9604 61.6614 27.6674 61.3681C27.3743 61.0749 26.9769 60.9102 26.5625 60.9102ZM25 67.1645H21.875V64.0373H25V67.1645Z" fill="white"/>
<path d="M15.625 60.9102H9.375C8.9606 60.9102 8.56317 61.0749 8.27015 61.3681C7.97712 61.6614 7.8125 62.0591 7.8125 62.4737V68.7281C7.8125 69.1428 7.97712 69.5405 8.27015 69.8337C8.56317 70.127 8.9606 70.2917 9.375 70.2917H15.625C16.0394 70.2917 16.4368 70.127 16.7299 69.8337C17.0229 69.5405 17.1875 69.1428 17.1875 68.7281V62.4737C17.1875 62.0591 17.0229 61.6614 16.7299 61.3681C16.4368 61.0749 16.0394 60.9102 15.625 60.9102ZM14.0625 67.1645H10.9375V64.0373H14.0625V67.1645Z" fill="white"/>
<path d="M26.5625 71.8555H20.3125C19.8981 71.8555 19.5007 72.0202 19.2076 72.3134C18.9146 72.6067 18.75 73.0044 18.75 73.4191V79.6734C18.75 80.0881 18.9146 80.4858 19.2076 80.7791C19.5007 81.0723 19.8981 81.237 20.3125 81.237H26.5625C26.9769 81.237 27.3743 81.0723 27.6674 80.7791C27.9604 80.4858 28.125 80.0881 28.125 79.6734V73.4191C28.125 73.0044 27.9604 72.6067 27.6674 72.3134C27.3743 72.0202 26.9769 71.8555 26.5625 71.8555ZM25 78.1098H21.875V74.9827H25V78.1098Z" fill="white"/>
<path d="M15.625 71.8555H9.375C8.9606 71.8555 8.56317 72.0202 8.27015 72.3134C7.97712 72.6067 7.8125 73.0044 7.8125 73.4191V79.6734C7.8125 80.0881 7.97712 80.4858 8.27015 80.7791C8.56317 81.0723 8.9606 81.237 9.375 81.237H15.625C16.0394 81.237 16.4368 81.0723 16.7299 80.7791C17.0229 80.4858 17.1875 80.0881 17.1875 79.6734V73.4191C17.1875 73.0044 17.0229 72.6067 16.7299 72.3134C16.4368 72.0202 16.0394 71.8555 15.625 71.8555ZM14.0625 78.1098H10.9375V74.9827H14.0625V78.1098Z" fill="white"/>
<path d="M26.5625 82.8008H20.3125C19.8981 82.8008 19.5007 82.9655 19.2076 83.2587C18.9146 83.552 18.75 83.9497 18.75 84.3644V90.6187C18.75 91.0334 18.9146 91.4311 19.2076 91.7244C19.5007 92.0176 19.8981 92.1823 20.3125 92.1823H26.5625C26.9769 92.1823 27.3743 92.0176 27.6674 91.7244C27.9604 91.4311 28.125 91.0334 28.125 90.6187V84.3644C28.125 83.9497 27.9604 83.552 27.6674 83.2587C27.3743 82.9655 26.9769 82.8008 26.5625 82.8008ZM25 89.0552H21.875V85.928H25V89.0552Z" fill="white"/>
<path d="M15.625 82.8008H9.375C8.9606 82.8008 8.56317 82.9655 8.27015 83.2587C7.97712 83.552 7.8125 83.9497 7.8125 84.3644V90.6187C7.8125 91.0334 7.97712 91.4311 8.27015 91.7244C8.56317 92.0176 8.9606 92.1823 9.375 92.1823H15.625C16.0394 92.1823 16.4368 92.0176 16.7299 91.7244C17.0229 91.4311 17.1875 91.0334 17.1875 90.6187V84.3644C17.1875 83.9497 17.0229 83.552 16.7299 83.2587C16.4368 82.9655 16.0394 82.8008 15.625 82.8008ZM14.0625 89.0552H10.9375V85.928H14.0625V89.0552Z" fill="white"/>
</svg>
