<svg width="100" height="104" viewBox="0 0 100 104" fill="none" xmlns="http://www.w3.org/2000/svg">
<path d="M95.8248 90.3614V87.7295C95.8248 85.9398 95.1664 84.2233 93.9945 82.9577C92.8227 81.6921 91.2332 80.9811 89.576 80.9811H58.3318V76.4822H89.7634C96.7621 76.4822 97.9911 65.8197 91.8464 63.3902C91.8746 52.55 88.2957 42.0596 81.7617 33.8305C75.2276 25.6015 66.1734 20.1815 56.2488 18.5582V13.4969C57.9061 13.4969 59.4955 12.7859 60.6674 11.5203C61.8393 10.2547 62.4977 8.53822 62.4977 6.74843C62.4977 4.95863 61.8393 3.24214 60.6674 1.97657C59.4955 0.710993 57.9061 2.667e-08 56.2488 0H43.7512C42.0939 2.667e-08 40.5045 0.710993 39.3326 1.97657C38.1607 3.24214 37.5023 4.95863 37.5023 6.74843C37.5023 8.53822 38.1607 10.2547 39.3326 11.5203C40.5045 12.7859 42.0939 13.4969 43.7512 13.4969V18.5582C33.8266 20.1815 24.7724 25.6015 18.2383 33.8305C11.7043 42.0596 8.12535 52.55 8.15364 63.3902C1.9048 65.8871 3.42535 76.4822 10.2366 76.4822H41.6682V80.9811H10.424C8.76675 80.9811 7.17734 81.6921 6.00545 82.9577C4.83357 84.2233 4.17521 85.9398 4.17521 87.7295V90.3614C2.78311 90.8903 1.60925 91.9342 0.861524 93.3081C0.113801 94.6821 -0.159524 96.2976 0.0899577 97.8683C0.33944 99.4391 1.09563 100.864 2.22459 101.89C3.35356 102.917 4.78244 103.478 6.25816 103.476H93.7418C95.2176 103.478 96.6464 102.917 97.7754 101.89C98.9044 100.864 99.6606 99.4391 99.91 97.8683C100.16 96.2976 99.8862 94.6821 99.1385 93.3081C98.3907 91.9342 97.2169 90.8903 95.8248 90.3614ZM43.7512 4.49895H56.2488C56.8013 4.49895 57.3311 4.73595 57.7217 5.15781C58.1123 5.57967 58.3318 6.15183 58.3318 6.74843C58.3318 7.34502 58.1123 7.91719 57.7217 8.33905C57.3311 8.7609 56.8013 8.9979 56.2488 8.9979H43.7512C43.1987 8.9979 42.6689 8.7609 42.2783 8.33905C41.8877 7.91719 41.6682 7.34502 41.6682 6.74843C41.6682 6.15183 41.8877 5.57967 42.2783 5.15781C42.6689 4.73595 43.1987 4.49895 43.7512 4.49895ZM47.9171 13.4969H52.0829V18.1083C50.6981 17.9508 49.3019 17.9508 47.9171 18.1083V13.4969ZM10.2366 67.4843C10.789 67.4843 11.3188 67.2473 11.7094 66.8254C12.1001 66.4035 12.3195 65.8314 12.3195 65.2348C12.3195 38.556 30.6494 22.4948 50 22.4948C69.3506 22.4948 87.6805 38.2411 87.6805 65.2348C87.6805 65.8314 87.8999 66.4035 88.2906 66.8254C88.6812 67.2473 89.211 67.4843 89.7634 67.4843C90.3158 67.4843 90.8456 67.7213 91.2363 68.1431C91.6269 68.565 91.8464 69.1371 91.8464 69.7337C91.8464 70.3303 91.6269 70.9025 91.2363 71.3244C90.8456 71.7462 90.3158 71.9832 89.7634 71.9832H10.2366C9.68415 71.9832 9.15435 71.7462 8.76372 71.3244C8.37309 70.9025 8.15364 70.3303 8.15364 69.7337C8.15364 69.1371 8.37309 68.565 8.76372 68.1431C9.15435 67.7213 9.68415 67.4843 10.2366 67.4843ZM45.8341 76.4822H54.1659V80.9811H45.8341V76.4822ZM93.7418 98.9769H6.25816C5.70573 98.9769 5.17592 98.7399 4.78529 98.3181C4.39466 97.8962 4.17521 97.324 4.17521 96.7274C4.17521 96.1308 4.39466 95.5587 4.78529 95.1368C5.17592 94.715 5.70573 94.478 6.25816 94.478C6.81059 94.478 7.34039 94.241 7.73102 93.8191C8.12165 93.3973 8.3411 92.8251 8.3411 92.2285V87.7295C8.3411 87.1329 8.56055 86.5608 8.95118 86.1389C9.34181 85.7171 9.87162 85.4801 10.424 85.4801H89.576C90.1284 85.4801 90.6582 85.7171 91.0488 86.1389C91.4394 86.5608 91.6589 87.1329 91.6589 87.7295V92.2285C91.6589 92.8251 91.8783 93.3973 92.269 93.8191C92.6596 94.241 93.1894 94.478 93.7418 94.478C94.2943 94.478 94.8241 94.715 95.2147 95.1368C95.6053 95.5587 95.8248 96.1308 95.8248 96.7274C95.8248 97.324 95.6053 97.8962 95.2147 98.3181C94.8241 98.7399 94.2943 98.9769 93.7418 98.9769Z" fill="white"/>
</svg>
